<?xml version="1.0" encoding="UTF-8"?>
<svg width="3600pt" height="3600pt" version="1.1" viewBox="0 0 3600 3600" xmlns="http://www.w3.org/2000/svg">
 <g>
  <path d="m2298.8 168.75h-997.53c-22.379 0-43.84 8.8906-59.664 24.715-15.82 15.824-24.711 37.281-24.711 59.66v225.22h-550.91c-37.285 0.039062-73.031 14.867-99.395 41.234-26.363 26.363-41.191 62.109-41.23 99.391v315.2c0.039062 37.285 14.867 73.027 41.23 99.395 26.363 26.363 62.109 41.191 99.395 41.23h20.684l164.79 2278.2c1.5391 21.27 11.074 41.164 26.684 55.688 15.613 14.52 36.148 22.594 57.469 22.59h1728.8c21.32 0 41.852-8.0742 57.461-22.598 15.613-14.52 25.148-34.414 26.691-55.68l164.79-2278.2h20.656c37.285-0.035157 73.035-14.863 99.398-41.227 26.367-26.367 41.191-62.113 41.227-99.398v-315.2c-0.035156-37.285-14.859-73.031-41.227-99.398-26.363-26.363-62.113-41.191-99.398-41.227h-550.86v-225.22c-0.003906-22.375-8.8984-43.832-24.719-59.656-15.82-15.82-37.277-24.711-59.652-24.719zm-913.16 168.75h828.78v140.84h-828.78zm1200.3 2925h-1571.8l-158.26-2187.7h1888.3zm319.98-2615.4v258.95h-2211.8v-258.95h2211.8z"/>
  <path d="m1304.8 2798.8c22.375 0 43.836-8.8906 59.66-24.711 15.824-15.824 24.711-37.285 24.715-59.664v-1091.5c0-30.141-16.082-57.996-42.188-73.07-26.105-15.07-58.27-15.07-84.375 0-26.105 15.074-42.188 42.93-42.188 73.07v1091.5c0 22.379 8.8906 43.84 24.711 59.664 15.824 15.82 37.285 24.711 59.664 24.711z"/>
  <path d="m1800 2798.8c22.379 0 43.836-8.8906 59.66-24.711 15.824-15.824 24.715-37.285 24.715-59.664v-1091.5c0-30.141-16.082-57.996-42.188-73.07-26.105-15.07-58.27-15.07-84.375 0-26.105 15.074-42.188 42.93-42.188 73.07v1091.5c0 22.379 8.8906 43.84 24.715 59.664 15.824 15.82 37.281 24.711 59.66 24.711z"/>
  <path d="m2295.2 2798.8c22.379-0.003906 43.836-8.8945 59.656-24.719 15.824-15.82 24.715-37.277 24.719-59.656v-1091.5c0-30.141-16.082-57.996-42.188-73.07-26.105-15.07-58.27-15.07-84.375 0-26.105 15.074-42.188 42.93-42.188 73.07v1091.5c0.007812 22.379 8.8984 43.836 24.719 59.656 15.824 15.824 37.281 24.715 59.656 24.719z"/>
 </g>
</svg>
